# xmcd CD database file
#
# Track frame offsets:
#	150
#	18706
#	39366
#	61723
#	82994
#	102014
#	124488
#	142292
#	161618
#	179477
#	198470
#	213067
#	235310
#	239599
#	259658
#	277423
#	301328
#	303448
#
# Disc length: 4092 seconds
#
# Revision: 0
# Processed by: cddbd v1.5.2PL0 Copyright (c) Steve Scherf et al.
# Submitted via: CDex 1.70beta2
#
DISCID=070ffa12
DTITLE=Brad Paisley - 5 th gear
DYEAR=1900
DGENRE=Country
TTITLE0=All I Wanted Was A Car
TTITLE1=Ticks
TTITLE2=Online
TTITLE3=Letter To Me
TTITLE4=I`m Still A Guy
TTITLE5=Some Mistakes
TTITLE6=It Did
TTITLE7=Mr Policeman
TTITLE8=If Love Was A Plane
TTITLE9=Oh Love (Featuring Carrie Und
TTITLE10=Better Than This
TTITLE11=With You, Without You
TTITLE12=Previously (Spoken Word)
TTITLE13=Bigger Fish To Fry (Featuring
TTITLE14=When We All Get To Heaven
TTITLE15=Throttleneck
TTITLE16=Outtake1 (Hidden Track 1)
TTITLE17=Outtake2 (Hidden Track 2)
EXTD=
EXTT0=
EXTT1=
EXTT2=
EXTT3=
EXTT4=
EXTT5=
EXTT6=
EXTT7=
EXTT8=
EXTT9=
EXTT10=
EXTT11=
EXTT12=
EXTT13=
EXTT14=
EXTT15=
EXTT16=
EXTT17=
PLAYORDER=
